<svg xmlns="http://www.w3.org/2000/svg" xmlns:xlink="http://www.w3.org/1999/xlink" version="1.1" width="50" height="50" style="enable-background:new 0 0 124 124;" xml:space="preserve"><rect id="backgroundrect" width="100%" height="100%" x="0" y="0" fill="none" stroke="none" class="" style=""/>
















<g class="currentLayer" style=""><title>Layer 1</title><g id="svg_1" class="" fill="#ffffff" fill-opacity="1">
	<path d="M45.29032090275288,1.3333334922790527 H6.043008228055035 C3.4526855915249626,1.3333334922790527 1.3333307070912899,3.647619282004687 1.3333307070912899,6.4761908027804616 s2.1193548844336854,5.142857310501408 4.709677520963744,5.142857310501408 h39.24731267469787 c2.5903226365300593,0 4.709677520963744,-2.314285789725634 4.709677520963744,-5.142857310501408 S47.88064353928296,1.3333334922790527 45.29032090275288,1.3333334922790527 z" id="svg_2" fill="#ffffff" fill-opacity="1"/>
	<path d="M45.29032090275288,20.19047696411755 H6.043008228055035 C3.4526855915249626,20.19047696411755 1.3333307070912899,22.504762753843185 1.3333307070912899,25.33333427461896 c0,2.8285715207757747 2.1193548844336854,5.142857310501408 4.709677520963744,5.142857310501408 h39.24731267469787 c2.5903226365300593,0 4.709677520963744,-2.314285789725634 4.709677520963744,-5.142857310501408 C49.999998423716626,22.504762753843185 47.88064353928296,20.19047696411755 45.29032090275288,20.19047696411755 z" id="svg_3" fill="#ffffff" fill-opacity="1"/>
	<path d="M45.29032090275288,39.04762043595605 H6.043008228055035 c-2.5903226365300593,0 -4.709677520963744,2.314285789725634 -4.709677520963744,5.142857310501408 s2.1193548844336854,5.142857310501408 4.709677520963744,5.142857310501408 h39.24731267469787 c2.5903226365300593,0 4.709677520963744,-2.314285789725634 4.709677520963744,-5.142857310501408 S47.88064353928296,39.04762043595605 45.29032090275288,39.04762043595605 z" id="svg_4" fill="#ffffff" fill-opacity="1"/>
</g><g id="svg_5">
</g><g id="svg_6">
</g><g id="svg_7">
</g><g id="svg_8">
</g><g id="svg_9">
</g><g id="svg_10">
</g><g id="svg_11">
</g><g id="svg_12">
</g><g id="svg_13">
</g><g id="svg_14">
</g><g id="svg_15">
</g><g id="svg_16">
</g><g id="svg_17">
</g><g id="svg_18">
</g><g id="svg_19">
</g></g></svg>